<svg width="451" height="222" viewBox="0 0 451 222" fill="none" xmlns="http://www.w3.org/2000/svg">
<path d="M134.316 172.769C48.3786 153.385 12 125 12 125V206H409C409 206 220.254 192.154 134.316 172.769Z" fill="black"/>
<g filter="url(#filter0_d)">
<path d="M12 122C12 122 62.0688 160.26 175.263 178.329C288.457 196.399 439.5 206.5 439.5 206.5" stroke="black" stroke-width="1.5" stroke-linecap="square" stroke-linejoin="round"/>
</g>
<path d="M12 117.5C12 117.5 60.8348 156.215 173.5 174.5C286.165 192.785 433.5 206 433.5 206" stroke="black" stroke-linecap="round"/>
<path d="M12 116C12 116 60.8947 154.823 173.691 173.005C286.488 191.188 435.5 207 435.5 207" stroke="black" stroke-width="0.5" stroke-linecap="round" stroke-linejoin="round"/>
<path fill-rule="evenodd" clip-rule="evenodd" d="M11.8021 118.847C11.8865 118.738 12.0435 118.718 12.1528 118.802L12 119L11.8472 119.198C11.7379 119.114 11.7178 118.957 11.8021 118.847ZM411 206C410.977 206.249 410.977 206.249 410.976 206.249L410.619 206.216C410.381 206.194 410.027 206.161 409.56 206.118C408.627 206.03 407.243 205.9 405.443 205.728C401.841 205.383 396.571 204.87 389.897 204.198C376.548 202.854 357.58 200.872 335.107 198.322C290.16 193.221 231.187 185.848 175.084 176.754C118.965 167.658 78.1624 153.275 51.3862 141.162C37.9982 135.106 28.117 129.618 21.5809 125.642C18.3129 123.654 15.8812 122.044 14.2657 120.931C13.4579 120.374 12.8542 119.942 12.4519 119.648C12.2508 119.501 12.1001 119.389 11.9994 119.313C11.949 119.275 11.9112 119.247 11.8859 119.227L11.8572 119.206L11.8499 119.2L11.8472 119.198C11.8468 119.198 11.8472 119.198 12 119C12.1528 118.802 12.1525 118.802 12.1528 118.802L12.1548 118.804L12.1615 118.809L12.1888 118.83C12.2133 118.848 12.2502 118.876 12.2997 118.913C12.3986 118.988 12.5475 119.099 12.7468 119.244C13.1454 119.535 13.7454 119.965 14.5494 120.519C16.1573 121.627 18.5811 123.232 21.8408 125.215C28.3602 129.18 38.2235 134.659 51.5923 140.707C78.3296 152.802 119.09 167.172 175.164 176.261C231.256 185.353 290.22 192.725 335.163 197.825C357.634 200.375 376.599 202.356 389.947 203.7C396.62 204.372 401.89 204.885 405.49 205.23C407.291 205.402 408.674 205.532 409.607 205.62C410.073 205.663 410.427 205.696 410.665 205.718L411.017 205.751L411.021 205.751C411.022 205.751 411.023 205.751 411 206ZM411 206L410.977 206.249C411.115 206.262 411.236 206.16 411.249 206.023C411.262 205.885 411.16 205.764 411.023 205.751L411 206Z" fill="black"/>
<path d="M12 116C12 116 63.6321 155.482 182.287 173.926C300.941 192.369 433 206 433 206" stroke="black" stroke-width="0.5" stroke-linecap="round"/>
<defs>
<filter id="filter0_d" x="0.94873" y="114.949" width="449.35" height="106.35" filterUnits="userSpaceOnUse" color-interpolation-filters="sRGB">
<feFlood flood-opacity="0" result="BackgroundImageFix"/>
<feColorMatrix in="SourceAlpha" type="matrix" values="0 0 0 0 0 0 0 0 0 0 0 0 0 0 0 0 0 0 127 0"/>
<feOffset dy="4"/>
<feGaussianBlur stdDeviation="5"/>
<feColorMatrix type="matrix" values="0 0 0 0 0.1875 0 0 0 0 0.1875 0 0 0 0 0.1875 0 0 0 0.67 0"/>
<feBlend mode="normal" in2="BackgroundImageFix" result="effect1_dropShadow"/>
<feBlend mode="normal" in="SourceGraphic" in2="effect1_dropShadow" result="shape"/>
</filter>
</defs>
</svg>
