<?xml version="1.0" encoding="utf-8"?>
<!-- Generator: Adobe Illustrator 24.0.0, SVG Export Plug-In . SVG Version: 6.00 Build 0)  -->
<svg version="1.1" id="Camada_1" xmlns="http://www.w3.org/2000/svg" xmlns:xlink="http://www.w3.org/1999/xlink" x="0px" y="0px"
	 viewBox="0 0 1920 1080" style="enable-background:new 0 0 1920 1080;" xml:space="preserve">
<style type="text/css">
	.st0{fill:#621E83;}
</style>
<g>
	<path class="st0" d="M436.34,261.82c-5.89-3.15-13.09-3.19-19.46-0.09c-5.44,2.55-9.57,6.91-11.96,12.64L299.95,540.73
		L186.48,273.95l-0.14-0.32c-2.42-5.31-6.49-9.42-11.77-11.89c-6.04-2.95-12.64-3.17-19.09-0.09c-5.88,2.59-10.25,7.28-12.35,13.27
		c-0.99,2.59-1.48,5.38-1.48,8.29c0,2.8,0.46,5.59,1.37,8.29l0.16,0.49L279.04,611.8l0.09,0.2c3.95,8.89,11.83,13.99,21.63,13.99
		c9.9,0,17.82-5.31,21.73-14.56l125.87-319.19c1.4-3.02,2.11-6.17,2.11-9.37c0-3.52-0.84-6.84-2.51-9.88
		C445.51,268.03,441.52,264.19,436.34,261.82"/>
	<path class="st0" d="M684.99,576.07c-38.77,0-71.17-13.45-99.04-41.11c-27.66-27.45-41.3-59.75-41.71-98.63V303.98H654.1
		c6.48,0,12.31-2.4,16.85-6.94c4.54-4.54,6.94-10.37,6.94-16.85s-2.4-12.3-6.94-16.85c-4.54-4.54-10.37-6.94-16.85-6.94H544.25
		v-55.65c0-6.48-2.4-12.31-6.94-16.85c-4.54-4.54-10.37-6.94-16.85-6.94s-12.31,2.4-16.85,6.94c-4.54,4.54-6.94,10.37-6.94,16.85
		v238.26l0,0.38c1.44,50.8,20.51,94.66,56.72,130.39c36.45,35.73,80.73,53.86,131.59,53.86c6.48,0,12.3-2.4,16.85-6.95
		c4.54-4.54,6.93-10.37,6.93-16.84s-2.4-12.3-6.94-16.85C697.29,578.47,691.47,576.07,684.99,576.07"/>
	<path class="st0" d="M959.03,270.73c-46.27-16.11-92.37-13.72-137.02,7.11c-44.46,20.73-75.82,54.46-93.23,100.29
		c-17.18,45.66-16.21,91.59,2.91,136.51l2.46,5.28c21.03,45.11,55.44,76.8,102.4,94.25c47.17,16.99,94.07,14.89,139.39-6.24
		c26.81-12.5,49.52-30.76,67.51-54.3c17.95-23.65,29.61-50.29,34.65-79.22c1.16-4.81,0.68-9.7-1.41-14.18
		c-0.71-1.53-1.63-2.97-2.73-4.29c-3.65-5.03-8.71-8.23-14.7-9.3l-0.72-0.11c-4.61-0.56-9.04,0.13-13.15,2.05l-2.9,1.35l-1.2,0.94
		c-4.96,3.87-8.14,9.07-9.18,15.04c-3.78,21.7-12.43,41.64-25.62,59.13c-13.56,17.52-30.5,31.11-50.36,40.37
		c-33.36,15.55-66.39,17.29-101.05,5.29c-30.05-10.26-52.84-27.92-69.29-53.8l264.98-123.56c10.74-5.01,15.56-15.09,12.76-26.47
		c-0.21-1.34-0.56-2.84-1.28-4.39l-0.42-0.9C1039.88,317.42,1005.3,286.85,959.03,270.73 M767.06,473.88
		c-6.88-27.82-4.59-55.08,6.88-82.87c13.62-32.6,35.82-55.72,67.88-70.67c32.26-15.05,64.2-17.29,97.59-6.89
		c28.5,9.01,50.81,24.91,67.82,48.43L767.06,473.88z"/>
	<path class="st0" d="M1403.21,539.85l-2.71-0.04c-5.15,0-9.95,1.76-13.91,5.1c-25.06,20.3-52.81,30.16-84.81,30.16
		c-37.39,0-68.46-12.87-95.01-39.39c-26.71-26.47-39.69-57.48-39.69-94.8c0-37.35,12.99-68.48,39.73-95.18
		c26.51-26.48,57.58-39.36,94.98-39.36c31.63,0,59.09,9.69,83.97,29.63l0.34,0.26c4.09,3.07,8.84,4.7,13.74,4.7h1.68l1.1-0.05
		c6.39-0.53,11.94-3.53,16.06-8.67l0.26-0.33c3.07-4.09,4.69-8.96,4.69-14.07l-0.04-2.05c-0.52-6.68-3.67-12.45-8.9-16.31
		c-32.91-26.56-70.89-40.02-112.9-40.02c-49.82,0-92.89,17.95-127.93,53.27c-35.61,35.17-53.67,78.29-53.67,128.17
		c0,49.64,18.05,92.75,53.61,128.11c35.13,35.16,78.19,52.99,128,52.99c42.47,0,80.81-13.7,113.93-40.71
		c5.21-3.85,8.35-9.62,8.87-16.29l0.04-2.04c0-5.24-1.8-10.17-5.2-14.31C1415.56,543.46,1409.83,540.36,1403.21,539.85"/>
	<path class="st0" d="M1743.17,301.32c-28.93-29.14-64.25-43.91-104.97-43.91c-26.51,0-51.4,6.72-73.93,19.92
		c-10.37,5.98-19.81,13.02-28.28,21.06l0.25-97.97c0-6.23-2.48-11.97-6.98-16.23c-4.35-4.51-10.09-6.88-16.64-6.88
		c-6.25,0-12.01,2.44-16.3,6.89c-4.51,4.26-6.98,10-6.98,16.23v400.11c0,6.24,2.48,11.98,6.99,16.24
		c4.29,4.44,10.05,6.88,16.29,6.88c6.54,0,12.27-2.37,16.63-6.87c4.52-4.26,7-10,7-16.24V406.32c0-28.32,9.8-51.89,29.95-72.05
		c20.15-20.16,43.7-29.96,72.01-29.96c28.3,0,51.86,9.8,72.01,29.96c20.15,20.16,29.95,43.73,29.95,72.05v194.21
		c0,6.28,2.29,11.88,6.72,16.28c4.57,4.47,10.3,6.83,16.57,6.83c6.16,0,11.8-2.28,16.34-6.61c4.7-4.29,7.28-10.14,7.28-16.51V406.11
		C1787.06,365.42,1772.26,330.14,1743.17,301.32"/>
	<path class="st0" d="M632.62,800.05c1.82,3.37,2.73,8.07,2.73,14.08c0,1.55-0.05,3.24-0.13,5.06h-0.14v0.14h0.14
		c-0.37,4.65-2.46,9.52-6.28,14.63c-9.73,12.76-25.33,19.14-46.8,19.14c-10.83,0-20.83-2.59-30.02-7.77
		c-9.19-5.19-16.28-12.24-21.29-21.16c-0.36-0.64-0.55-1.27-0.55-1.91c0-0.36,0.05-0.73,0.14-1.09c0.36-1.09,1-1.91,1.91-2.46
		c0.63-0.36,1.27-0.55,1.91-0.55c0.36,0,0.77,0.09,1.23,0.27c1.09,0.27,1.91,0.91,2.46,1.91c4.18,7.55,10.28,13.56,18.29,18.01
		c7.91,4.37,16.56,6.55,25.93,6.55c18.74,0,32.11-5.22,40.12-15.66l0.27-0.27c2.91-3.81,4.46-7.17,4.64-10.07v-0.41
		c0.18-1.81,0.27-3.45,0.27-4.9c0-4.26-0.59-7.4-1.77-9.39c-1.73-3.08-4.91-6.3-9.55-9.66c-6.46-4.63-17.38-6.94-32.75-6.94
		c-17.01,0-29.43-2.87-37.25-8.61c-6.27-4.46-10.37-8.84-12.28-13.12c-1.36-3.01-2.05-7.34-2.05-12.99v-3.28l0.14-0.14
		c0.36-4.56,2.41-9.3,6.14-14.22c9.73-12.85,25.24-19.27,46.53-19.27c14.83,0,27.7,4.64,38.62,13.92c0.91,0.64,1.41,1.55,1.5,2.73
		v0.41c0,0.91-0.32,1.73-0.96,2.46c-0.73,0.91-1.64,1.41-2.73,1.5h-0.41c-0.91,0-1.73-0.32-2.46-0.96
		c-9.46-7.91-20.65-11.87-33.57-11.87c-18.65,0-31.98,5.26-39.98,15.79l-0.13,0.14c-2.91,3.81-4.46,7.22-4.64,10.21v2.04
		c0,4.63,0.45,8.03,1.36,10.21c1.36,2.91,4.55,6.17,9.55,9.8c6.55,4.72,17.47,7.08,32.75,7.08c17.01,0,29.48,2.87,37.39,8.61
		C626.43,791.94,630.34,795.95,632.62,800.05"/>
	<path class="st0" d="M792.55,720.87c0.18,0.46,0.27,0.96,0.27,1.5c0,0.55-0.14,1.14-0.41,1.77L701.8,906.86
		c-0.73,1.55-2,2.32-3.82,2.32c-0.64,0-1.23-0.14-1.77-0.41c-1.09-0.55-1.82-1.37-2.18-2.46c-0.18-0.46-0.27-0.95-0.27-1.5
		c0-0.54,0.14-1.14,0.41-1.77l22.52-45.3l-60.59-136.05c-0.18-0.54-0.27-1.09-0.27-1.64c0-0.54,0.09-1.09,0.27-1.64
		c0.36-1.09,1.09-1.87,2.18-2.32c0.63-0.27,1.23-0.41,1.77-0.41c0.55,0,1.05,0.09,1.5,0.28c1.09,0.45,1.86,1.23,2.32,2.32
		l57.73,129.5l63.18-127.32c0.54-1.09,1.36-1.82,2.46-2.18c0.45-0.18,0.96-0.28,1.5-0.28c0.55,0,1.14,0.14,1.77,0.41
		C791.5,718.95,792.18,719.77,792.55,720.87"/>
	<path class="st0" d="M912.5,800.05c1.82,3.37,2.73,8.07,2.73,14.08c0,1.55-0.04,3.24-0.13,5.06h-0.14v0.14h0.14
		c-0.37,4.65-2.46,9.52-6.28,14.63c-9.73,12.76-25.33,19.14-46.8,19.14c-10.83,0-20.83-2.59-30.02-7.77
		c-9.19-5.19-16.28-12.24-21.29-21.16c-0.36-0.64-0.54-1.27-0.54-1.91c0-0.36,0.05-0.73,0.14-1.09c0.36-1.09,1-1.91,1.91-2.46
		c0.63-0.36,1.27-0.55,1.91-0.55c0.36,0,0.77,0.09,1.23,0.27c1.09,0.27,1.91,0.91,2.46,1.91c4.19,7.55,10.28,13.56,18.29,18.01
		c7.91,4.37,16.56,6.55,25.93,6.55c18.74,0,32.11-5.22,40.12-15.66l0.27-0.27c2.91-3.81,4.46-7.17,4.64-10.07v-0.41
		c0.18-1.81,0.27-3.45,0.27-4.9c0-4.26-0.6-7.4-1.78-9.39c-1.73-3.08-4.91-6.3-9.55-9.66c-6.46-4.63-17.38-6.94-32.75-6.94
		c-17.01,0-29.43-2.87-37.25-8.61c-6.27-4.46-10.37-8.84-12.28-13.12c-1.37-3.01-2.05-7.34-2.05-12.99v-3.28l0.14-0.14
		c0.36-4.56,2.41-9.3,6.14-14.22c9.73-12.85,25.24-19.27,46.53-19.27c14.83,0,27.7,4.64,38.62,13.92c0.91,0.64,1.41,1.55,1.5,2.73
		v0.41c0,0.91-0.32,1.73-0.96,2.46c-0.73,0.91-1.64,1.41-2.73,1.5h-0.41c-0.91,0-1.73-0.32-2.46-0.96
		c-9.46-7.91-20.66-11.87-33.57-11.87c-18.65,0-31.98,5.26-39.99,15.79l-0.13,0.14c-2.91,3.81-4.46,7.22-4.64,10.21v2.04
		c0,4.63,0.45,8.03,1.36,10.21c1.36,2.91,4.55,6.17,9.55,9.8c6.55,4.72,17.47,7.08,32.75,7.08c17.01,0,29.48,2.87,37.39,8.61
		C906.31,791.94,910.22,795.95,912.5,800.05"/>
	<path class="st0" d="M1011.43,844.64c1.18,0,2.18,0.41,3,1.23c0.82,0.82,1.23,1.82,1.23,3c0,1.18-0.41,2.18-1.23,3
		c-0.82,0.82-1.82,1.23-3,1.23c-19.29,0-35.84-6.78-49.67-20.33c-13.74-13.56-20.88-29.98-21.42-49.26V661.37
		c0-1.18,0.41-2.18,1.23-3c0.82-0.82,1.82-1.23,3-1.23c1.18,0,2.18,0.41,3,1.23c0.82,0.82,1.23,1.82,1.23,3v53.36h50.08
		c1.18,0,2.19,0.41,3,1.23c0.82,0.82,1.23,1.82,1.23,3s-0.41,2.18-1.23,3c-0.82,0.82-1.82,1.23-3,1.23h-50.08v59.22
		c0.18,17.19,6.37,31.84,18.56,43.94C979.63,838.54,994.33,844.64,1011.43,844.64"/>
	<path class="st0" d="M1173.01,754.7c0.04,0.08,0.08,0.27,0.11,0.55c0.63,2.22-0.08,3.8-2.14,4.76l-113.04,52.71
		c7.42,14.41,18.77,24.22,34.05,29.44c15.32,5.31,30.36,4.51,45.12-2.37c8.91-4.15,16.4-10.15,22.47-18
		c5.95-7.9,9.78-16.7,11.46-26.43c0.19-1.09,0.77-2.01,1.72-2.76l0.62-0.29c0.74-0.34,1.54-0.46,2.39-0.36
		c1.09,0.2,1.97,0.79,2.64,1.78c0.2,0.21,0.35,0.44,0.47,0.68c0.34,0.74,0.41,1.52,0.18,2.32c-1.89,11.02-6.25,21.04-13.09,30.05
		c-6.8,8.89-15.26,15.7-25.41,20.43c-17.15,8-34.65,8.78-52.51,2.35c-17.73-6.59-30.57-18.42-38.53-35.48l-0.92-1.98
		c-7.24-17-7.61-34.15-1.1-51.43c6.58-17.32,18.28-29.91,35.1-37.75c16.9-7.88,34.1-8.77,51.6-2.68c17.5,6.1,30.39,17.5,38.69,34.21
		L1173.01,754.7z M1163.56,754.44c-7.88-13.45-19.18-22.5-33.89-27.15c-14.8-4.61-29.33-3.6-43.59,3.05
		c-14.18,6.61-24.28,17.13-30.31,31.55c-5.94,14.38-6.33,28.84-1.16,43.35L1163.56,754.44z"/>
	<path class="st0" d="M1371.65,714.04c15.29,0,28.36,5.42,39.19,16.26c10.83,10.84,16.25,23.9,16.25,39.2V849
		c0,1.18-0.42,2.14-1.25,2.87c-0.84,0.82-1.81,1.23-2.92,1.23c-1.11,0-2.08-0.41-2.91-1.23c-0.74-0.73-1.11-1.68-1.11-2.87v-79.42
		c0-13.1-4.64-24.24-13.9-33.43c-9.27-9.28-20.4-13.92-33.38-13.92c-12.99,0-24.12,4.64-33.38,13.92
		c-9.27,9.19-13.9,20.33-13.9,33.43V849c0,1.19-0.37,2.14-1.11,2.87c-0.83,0.82-1.8,1.23-2.91,1.23c-1.11,0-2.08-0.41-2.91-1.23
		c-0.84-0.73-1.25-1.68-1.25-2.87v-79.42c0-13.1-4.59-24.24-13.77-33.43c-9.27-9.28-20.39-13.92-33.38-13.92
		c-13.08,0-24.21,4.64-33.38,13.92c-9.27,9.19-13.9,20.33-13.9,33.43V849c0,1.19-0.37,2.14-1.11,2.87c-0.83,0.82-1.8,1.23-2.91,1.23
		c-1.2,0-2.18-0.41-2.92-1.23c-0.83-0.73-1.25-1.69-1.25-2.87v-80.46c0.27-15.02,5.78-27.86,16.52-38.52
		c10.83-10.65,23.8-15.98,38.92-15.98c11.47,0,21.89,3.23,31.27,9.69c9.19,6.37,15.88,14.69,20.07,24.97
		c4.19-10.28,10.88-18.61,20.07-24.97C1349.76,717.27,1360.18,714.04,1371.65,714.04"/>
	<path class="st0" d="M1763.33,712.98c-9.51,0-17.85-3.49-24.78-10.36l0,0c-6.94-6.88-10.46-15.19-10.46-24.67
		c0-9.75,3.52-18.19,10.46-25.09c6.93-6.88,15.27-10.36,24.78-10.36c9.51,0,17.85,3.49,24.78,10.36
		c6.95,6.9,10.46,15.34,10.46,25.09c0,9.45-3.43,17.74-10.2,24.62C1781.57,709.47,1773.15,712.98,1763.33,712.98z M1763.33,655.65
		c-6,0-11.08,2.14-15.52,6.54c-4.42,4.39-6.57,9.54-6.57,15.75c0,5.93,2.15,10.95,6.57,15.33l0,0c4.44,4.41,9.51,6.55,15.52,6.55
		c6.24,0,11.37-2.12,15.67-6.49c4.32-4.39,6.42-9.43,6.42-15.39c0-6.2-2.15-11.36-6.58-15.75
		C1774.41,657.79,1769.33,655.65,1763.33,655.65z"/>
	<path class="st0" d="M156.67,241.3c-9.52,0-17.85-3.49-24.78-10.36l0,0c-6.94-6.88-10.46-15.19-10.46-24.68
		c0-9.75,3.52-18.19,10.46-25.08c6.93-6.88,15.27-10.37,24.78-10.37c9.51,0,17.85,3.49,24.78,10.36
		c6.95,6.9,10.46,15.34,10.46,25.09c0,9.45-3.43,17.74-10.2,24.62C174.91,237.8,166.48,241.3,156.67,241.3z M156.67,183.97
		c-6,0-11.08,2.14-15.52,6.55c-4.42,4.39-6.57,9.54-6.57,15.75c0,5.94,2.15,10.95,6.57,15.34l0,0c4.44,4.4,9.51,6.54,15.52,6.54
		c6.25,0,11.37-2.12,15.67-6.49c4.32-4.39,6.42-9.43,6.42-15.39c0-6.2-2.15-11.35-6.58-15.75
		C167.74,186.11,162.66,183.97,156.67,183.97z"/>
</g>
</svg>
