<svg width="37" height="20" viewBox="0 0 37 20" fill="none" xmlns="http://www.w3.org/2000/svg">
<path d="M6.53571 4.89796V0H11.4261L15.2685 13.4694L19.1109 0H36.5766V1.89796C36.5766 3.55481 35.2334 4.89796 33.5766 4.89796H31.6862V18.2534C31.6862 19.218 30.9042 20 29.9396 20H27.4944V4.89796H21.9054L17.7137 18.7755L17.6957 18.8214C17.4167 19.5324 16.7309 20 15.9671 20H14.5699H13.522L8.63158 4.89796H6.53571Z" fill="#541685"/>
<path d="M4.40599 0H0V0.482899C0 1.79253 0 2.44734 0.200949 2.96839C0.505708 3.7586 1.13029 4.38318 1.9205 4.68794C2.44155 4.88889 3.09636 4.88889 4.40599 4.88889V0Z" fill="#541685"/>
</svg>
