<svg width="45" height="45" viewBox="0 0 45 45" fill="none" xmlns="http://www.w3.org/2000/svg">
<rect width="45" height="45" rx="4" fill="#541685"/>
<path d="M10.5357 18.898V14H15.4261L19.2685 27.4694L23.1109 14H40.5766V15.898C40.5766 17.5548 39.2334 18.898 37.5766 18.898H35.6862V32.2534C35.6862 33.218 34.9042 34 33.9396 34H31.4944V18.898H25.9054L21.7137 32.7755L21.6957 32.8214C21.4167 33.5324 20.7309 34 19.9671 34H18.5699H17.522L12.6316 18.898H10.5357Z" fill="white"/>
<path d="M8.40599 14H4V14.4829C4 15.7925 4 16.4473 4.20095 16.9684C4.50571 17.7586 5.13029 18.3832 5.9205 18.6879C6.44155 18.8889 7.09636 18.8889 8.40599 18.8889V14Z" fill="white"/>
</svg>
