<?xml version="1.0" encoding="UTF-8"?>
<svg xmlns="http://www.w3.org/2000/svg" xmlns:xlink="http://www.w3.org/1999/xlink" width="150px" height="39px" viewBox="0 0 152 39" version="1.1">
<g id="surface1">
<path style=" stroke:none;fill-rule:nonzero;fill:rgb(38.431373%,11.764706%,51.372549%);fill-opacity:1;" d="M 23.792969 9.007812 C 23.441406 8.832031 23.035156 8.8125 22.664062 9.007812 C 22.332031 9.164062 22.097656 9.417969 21.960938 9.75 L 15.863281 25.253906 L 9.257812 9.730469 L 9.257812 9.710938 C 9.121094 9.398438 8.886719 9.164062 8.574219 9.027344 C 8.222656 8.851562 7.832031 8.851562 7.464844 9.027344 C 7.113281 9.183594 6.859375 9.457031 6.742188 9.808594 C 6.683594 9.964844 6.664062 10.121094 6.664062 10.296875 C 6.664062 10.453125 6.683594 10.628906 6.742188 10.785156 L 6.742188 10.804688 L 14.65625 29.425781 L 14.65625 29.445312 C 14.886719 29.972656 15.335938 30.265625 15.921875 30.265625 C 16.503906 30.265625 16.953125 29.953125 17.1875 29.425781 L 24.515625 10.84375 C 24.59375 10.667969 24.632812 10.492188 24.632812 10.296875 C 24.632812 10.082031 24.574219 9.90625 24.476562 9.710938 C 24.320312 9.378906 24.085938 9.164062 23.792969 9.007812 "/>
<path style=" stroke:none;fill-rule:nonzero;fill:rgb(38.431373%,11.764706%,51.372549%);fill-opacity:1;" d="M 38.253906 27.320312 C 35.992188 27.320312 34.121094 26.539062 32.484375 24.921875 C 30.867188 23.320312 30.089844 21.449219 30.050781 19.1875 L 30.050781 11.464844 L 36.441406 11.464844 C 36.8125 11.464844 37.160156 11.328125 37.414062 11.054688 C 37.6875 10.785156 37.824219 10.453125 37.824219 10.082031 C 37.824219 9.710938 37.6875 9.359375 37.414062 9.105469 C 37.140625 8.832031 36.8125 8.695312 36.441406 8.695312 L 30.050781 8.695312 L 30.050781 5.460938 C 30.050781 5.089844 29.914062 4.738281 29.640625 4.484375 C 29.367188 4.210938 29.035156 4.074219 28.664062 4.074219 C 28.296875 4.074219 27.945312 4.210938 27.691406 4.484375 C 27.417969 4.757812 27.28125 5.089844 27.28125 5.460938 L 27.28125 19.34375 C 27.359375 22.308594 28.472656 24.863281 30.574219 26.929688 C 32.699219 29.015625 35.273438 30.070312 38.234375 30.070312 C 38.605469 30.070312 38.953125 29.933594 39.207031 29.660156 C 39.480469 29.386719 39.617188 29.054688 39.617188 28.683594 C 39.617188 28.3125 39.480469 27.964844 39.207031 27.710938 C 38.972656 27.457031 38.625 27.320312 38.253906 27.320312 "/>
<path style=" stroke:none;fill-rule:nonzero;fill:rgb(38.431373%,11.764706%,51.372549%);fill-opacity:1;" d="M 54.195312 9.535156 C 51.503906 8.597656 48.816406 8.734375 46.222656 9.945312 C 43.632812 11.152344 41.820312 13.125 40.804688 15.777344 C 39.8125 18.425781 39.871094 21.097656 40.980469 23.730469 L 41.117188 24.042969 C 42.34375 26.675781 44.351562 28.507812 47.082031 29.523438 C 49.828125 30.515625 52.558594 30.382812 55.1875 29.152344 C 56.746094 28.429688 58.070312 27.359375 59.125 25.992188 C 60.175781 24.609375 60.839844 23.070312 61.132812 21.390625 C 61.191406 21.117188 61.171875 20.824219 61.054688 20.574219 C 61.015625 20.476562 60.957031 20.398438 60.898438 20.320312 C 60.683594 20.027344 60.390625 19.832031 60.039062 19.773438 L 60 19.773438 C 59.726562 19.734375 59.476562 19.773438 59.242188 19.890625 L 59.066406 19.96875 L 58.988281 20.027344 C 58.695312 20.261719 58.519531 20.554688 58.460938 20.902344 C 58.246094 22.171875 57.742188 23.320312 56.980469 24.355469 C 56.199219 25.371094 55.207031 26.167969 54.058594 26.695312 C 52.109375 27.59375 50.199219 27.710938 48.171875 27.007812 C 46.417969 26.402344 45.09375 25.390625 44.136719 23.867188 L 59.554688 16.671875 C 60.175781 16.378906 60.449219 15.796875 60.292969 15.132812 C 60.273438 15.054688 60.253906 14.976562 60.214844 14.878906 L 60.175781 14.820312 C 58.890625 12.246094 56.882812 10.472656 54.195312 9.535156 M 43.027344 21.351562 C 42.617188 19.734375 42.753906 18.15625 43.4375 16.535156 C 44.234375 14.644531 45.523438 13.300781 47.394531 12.421875 C 49.261719 11.542969 51.132812 11.40625 53.0625 12.011719 C 54.71875 12.539062 56.027344 13.453125 57 14.839844 Z M 43.027344 21.351562 "/>
<path style=" stroke:none;fill-rule:nonzero;fill:rgb(38.431373%,11.764706%,51.372549%);fill-opacity:1;" d="M 80.035156 25.195312 L 79.878906 25.195312 C 79.585938 25.195312 79.292969 25.292969 79.058594 25.488281 C 77.597656 26.675781 75.980469 27.242188 74.128906 27.242188 C 71.945312 27.242188 70.152344 26.5 68.59375 24.941406 C 67.035156 23.398438 66.296875 21.585938 66.296875 19.421875 C 66.296875 17.257812 67.054688 15.445312 68.613281 13.882812 C 70.152344 12.34375 71.964844 11.601562 74.148438 11.601562 C 75.980469 11.601562 77.578125 12.167969 79.039062 13.320312 L 79.058594 13.339844 C 79.292969 13.511719 79.566406 13.609375 79.859375 13.609375 L 80.015625 13.609375 C 80.382812 13.570312 80.714844 13.398438 80.949219 13.105469 L 80.96875 13.085938 C 81.144531 12.851562 81.242188 12.558594 81.242188 12.265625 L 81.242188 12.148438 C 81.203125 11.757812 81.027344 11.425781 80.714844 11.191406 C 78.804688 9.652344 76.585938 8.871094 74.148438 8.871094 C 71.246094 8.871094 68.75 9.925781 66.703125 11.972656 C 64.640625 14.019531 63.585938 16.535156 63.585938 19.441406 C 63.585938 22.328125 64.640625 24.84375 66.703125 26.890625 C 68.75 28.9375 71.246094 29.972656 74.148438 29.972656 C 76.625 29.972656 78.84375 29.171875 80.773438 27.59375 C 81.085938 27.359375 81.261719 27.027344 81.28125 26.636719 L 81.28125 26.519531 C 81.28125 26.207031 81.183594 25.933594 80.96875 25.679688 C 80.753906 25.410156 80.421875 25.234375 80.035156 25.195312 "/>
<path style=" stroke:none;fill-rule:nonzero;fill:rgb(38.431373%,11.764706%,51.372549%);fill-opacity:1;" d="M 99.8125 11.308594 C 98.136719 9.613281 96.070312 8.753906 93.714844 8.753906 C 92.175781 8.753906 90.730469 9.144531 89.40625 9.90625 C 88.804688 10.257812 88.257812 10.667969 87.769531 11.132812 L 87.789062 5.441406 C 87.789062 5.070312 87.652344 4.738281 87.378906 4.503906 C 87.128906 4.25 86.796875 4.09375 86.40625 4.09375 C 86.035156 4.09375 85.703125 4.230469 85.453125 4.503906 C 85.199219 4.757812 85.042969 5.089844 85.042969 5.441406 L 85.042969 28.722656 C 85.042969 29.09375 85.179688 29.425781 85.453125 29.660156 C 85.703125 29.914062 86.035156 30.070312 86.40625 30.070312 C 86.796875 30.070312 87.128906 29.933594 87.378906 29.660156 C 87.632812 29.40625 87.789062 29.074219 87.789062 28.722656 L 87.789062 17.414062 C 87.789062 15.757812 88.355469 14.390625 89.523438 13.222656 C 90.691406 12.050781 92.058594 11.484375 93.714844 11.484375 C 95.351562 11.484375 96.734375 12.050781 97.902344 13.222656 C 99.074219 14.390625 99.636719 15.777344 99.636719 17.414062 L 99.636719 28.722656 C 99.636719 29.09375 99.773438 29.40625 100.027344 29.679688 C 100.300781 29.933594 100.632812 30.070312 100.984375 30.070312 C 101.332031 30.070312 101.664062 29.933594 101.9375 29.679688 C 102.210938 29.425781 102.367188 29.09375 102.367188 28.722656 L 102.367188 17.414062 C 102.367188 15.054688 101.507812 12.988281 99.8125 11.308594 "/>
<path style=" stroke:none;fill-rule:nonzero;fill:rgb(38.431373%,11.764706%,51.372549%);fill-opacity:1;" d="M 100.984375 35.277344 C 100.4375 35.277344 99.949219 35.082031 99.539062 34.671875 C 99.132812 34.261719 98.9375 33.792969 98.9375 33.226562 C 98.9375 32.664062 99.152344 32.175781 99.539062 31.765625 C 99.949219 31.355469 100.4375 31.160156 100.984375 31.160156 C 101.527344 31.160156 102.015625 31.355469 102.425781 31.765625 C 102.832031 32.175781 103.027344 32.664062 103.027344 33.226562 C 103.027344 33.773438 102.832031 34.261719 102.445312 34.652344 C 102.035156 35.082031 101.546875 35.277344 100.984375 35.277344 Z M 100.984375 31.941406 C 100.632812 31.941406 100.339844 32.058594 100.085938 32.332031 C 99.832031 32.585938 99.695312 32.878906 99.695312 33.246094 C 99.695312 33.597656 99.8125 33.890625 100.085938 34.144531 C 100.339844 34.398438 100.632812 34.535156 100.984375 34.535156 C 101.351562 34.535156 101.644531 34.417969 101.898438 34.164062 C 102.152344 33.910156 102.269531 33.617188 102.269531 33.265625 C 102.269531 32.898438 102.152344 32.605469 101.878906 32.351562 C 101.625 32.058594 101.332031 31.941406 100.984375 31.941406 Z M 100.984375 31.941406 "/>
<path style=" stroke:none;fill-rule:nonzero;fill:rgb(38.431373%,11.764706%,51.372549%);fill-opacity:1;" d="M 7.523438 7.820312 C 6.976562 7.820312 6.488281 7.625 6.078125 7.214844 C 5.671875 6.804688 5.476562 6.335938 5.476562 5.773438 C 5.476562 5.207031 5.691406 4.71875 6.078125 4.308594 C 6.488281 3.898438 6.976562 3.703125 7.523438 3.703125 C 8.066406 3.703125 8.554688 3.898438 8.964844 4.308594 C 9.375 4.71875 9.566406 5.207031 9.566406 5.773438 C 9.566406 6.316406 9.375 6.804688 8.984375 7.195312 C 8.574219 7.625 8.085938 7.820312 7.523438 7.820312 Z M 7.523438 4.484375 C 7.171875 4.484375 6.878906 4.601562 6.625 4.875 C 6.371094 5.128906 6.234375 5.421875 6.234375 5.792969 C 6.234375 6.140625 6.351562 6.433594 6.625 6.6875 C 6.878906 6.941406 7.171875 7.078125 7.523438 7.078125 C 7.890625 7.078125 8.183594 6.960938 8.4375 6.707031 C 8.691406 6.453125 8.808594 6.160156 8.808594 5.8125 C 8.808594 5.441406 8.691406 5.148438 8.417969 4.894531 C 8.164062 4.601562 7.871094 4.484375 7.523438 4.484375 Z M 7.523438 4.484375 "/>
</g>
</svg>
