<svg width="100" height="20" viewBox="0 0 100 20" fill="none" xmlns="http://www.w3.org/2000/svg">
<path d="M6.53571 4.89796V0H11.4261L15.2685 13.4694L19.1109 0H36.5766V1.89796C36.5766 3.55481 35.2334 4.89796 33.5766 4.89796H31.6862V18.2534C31.6862 19.218 30.9042 20 29.9396 20H27.4944V4.89796H21.9054L17.7137 18.7755L17.6957 18.8214C17.4167 19.5324 16.7309 20 15.9671 20H14.5699H13.522L8.63158 4.89796H6.53571Z" fill="#541685"/>
<path d="M4.40599 0H0V0.482899C0 1.79253 0 2.44734 0.200949 2.96839C0.505708 3.7586 1.13029 4.38318 1.9205 4.68794C2.44155 4.88889 3.09636 4.88889 4.40599 4.88889V0Z" fill="#541685"/>
<path d="M81 20V0H86.3023V7.6H94.6977V0H100V9.4C100 11.0569 98.6569 12.4 97 12.4H86.7442V17C86.7442 18.6569 85.401 20 83.7442 20H81Z" fill="#541685"/>
<path d="M94.6977 20V14.4H100V17C100 18.6569 98.6569 20 97 20H94.6977Z" fill="#541685"/>
<path d="M79 6.53061H73.4186V4.4898H65.0465V15.102H73.4186V13.0612H79V17C79 18.6569 77.6569 20 76 20H62C60.3431 20 59 18.6569 59 17V3C59 1.34315 60.3431 0 62 0H76C77.6569 0 79 1.34315 79 3V6.53061Z" fill="#541685"/>
<path d="M39 20V0H58V1.8C58 3.45685 56.6569 4.8 55 4.8H44.7442V7.6H52.2558V9.4C52.2558 11.0569 50.9127 12.4 49.2558 12.4H44.3023V15.2H58V17C58 18.6569 56.6569 20 55 20H39Z" fill="#541685"/>
</svg>
