<?xml version="1.0" encoding="UTF-8"?>
<svg xmlns="http://www.w3.org/2000/svg" xmlns:xlink="http://www.w3.org/1999/xlink" width="150px" height="38px" viewBox="0 0 152 38" version="1.1">
<g id="surface1">
<path style=" stroke:none;fill-rule:nonzero;fill:rgb(100%,100%,100%);fill-opacity:1;" d="M 27.863281 8.824219 C 27.519531 8.652344 27.125 8.632812 26.765625 8.824219 C 26.441406 8.976562 26.214844 9.222656 26.082031 9.542969 L 20.164062 24.578125 L 13.75 9.523438 L 13.75 9.503906 C 13.617188 9.203125 13.390625 8.976562 13.089844 8.84375 C 12.75 8.671875 12.371094 8.671875 12.011719 8.84375 C 11.671875 8.992188 11.425781 9.257812 11.3125 9.597656 C 11.253906 9.75 11.234375 9.902344 11.234375 10.070312 C 11.234375 10.222656 11.253906 10.394531 11.3125 10.546875 L 11.3125 10.5625 L 18.992188 28.628906 L 18.992188 28.648438 C 19.21875 29.15625 19.652344 29.441406 20.21875 29.441406 C 20.789062 29.441406 21.222656 29.136719 21.449219 28.628906 L 28.5625 10.601562 C 28.636719 10.429688 28.675781 10.261719 28.675781 10.070312 C 28.675781 9.863281 28.617188 9.695312 28.523438 9.503906 C 28.371094 9.183594 28.144531 8.976562 27.863281 8.824219 "/>
<path style=" stroke:none;fill-rule:nonzero;fill:rgb(100%,100%,100%);fill-opacity:1;" d="M 41.894531 26.585938 C 39.703125 26.585938 37.886719 25.828125 36.296875 24.257812 C 34.726562 22.707031 33.972656 20.890625 33.933594 18.699219 L 33.933594 11.207031 L 40.136719 11.207031 C 40.496094 11.207031 40.835938 11.074219 41.082031 10.808594 C 41.347656 10.546875 41.480469 10.222656 41.480469 9.863281 C 41.480469 9.503906 41.347656 9.164062 41.082031 8.917969 C 40.816406 8.652344 40.496094 8.519531 40.136719 8.519531 L 33.933594 8.519531 L 33.933594 5.382812 C 33.933594 5.023438 33.800781 4.679688 33.535156 4.433594 C 33.269531 4.171875 32.949219 4.039062 32.589844 4.039062 C 32.230469 4.039062 31.890625 4.171875 31.644531 4.433594 C 31.378906 4.699219 31.246094 5.023438 31.246094 5.382812 L 31.246094 18.847656 C 31.324219 21.722656 32.402344 24.203125 34.445312 26.207031 C 36.503906 28.230469 39.003906 29.25 41.878906 29.25 C 42.238281 29.25 42.578125 29.121094 42.824219 28.855469 C 43.089844 28.589844 43.21875 28.269531 43.21875 27.910156 C 43.21875 27.550781 43.089844 27.210938 42.824219 26.964844 C 42.597656 26.71875 42.253906 26.585938 41.894531 26.585938 "/>
<path style=" stroke:none;fill-rule:nonzero;fill:rgb(100%,100%,100%);fill-opacity:1;" d="M 57.367188 9.335938 C 54.757812 8.425781 52.148438 8.558594 49.632812 9.730469 C 47.117188 10.90625 45.359375 12.816406 44.375 15.386719 C 43.410156 17.960938 43.464844 20.550781 44.542969 23.105469 L 44.675781 23.40625 C 45.867188 25.960938 47.816406 27.738281 50.464844 28.722656 C 53.132812 29.6875 55.78125 29.554688 58.332031 28.363281 C 59.847656 27.664062 61.132812 26.621094 62.15625 25.296875 C 63.175781 23.957031 63.820312 22.460938 64.101562 20.835938 C 64.160156 20.570312 64.140625 20.285156 64.027344 20.039062 C 63.988281 19.945312 63.933594 19.871094 63.875 19.792969 C 63.667969 19.511719 63.382812 19.320312 63.042969 19.265625 L 63.003906 19.265625 C 62.742188 19.226562 62.496094 19.265625 62.269531 19.378906 L 62.097656 19.453125 L 62.023438 19.511719 C 61.738281 19.738281 61.566406 20.019531 61.511719 20.363281 C 61.304688 21.589844 60.8125 22.707031 60.074219 23.710938 C 59.316406 24.695312 58.351562 25.46875 57.238281 25.980469 C 55.34375 26.851562 53.492188 26.964844 51.523438 26.28125 C 49.820312 25.695312 48.535156 24.710938 47.609375 23.238281 L 62.570312 16.257812 C 63.175781 15.972656 63.441406 15.40625 63.289062 14.761719 C 63.269531 14.6875 63.25 14.613281 63.214844 14.515625 L 63.175781 14.460938 C 61.925781 11.964844 59.980469 10.242188 57.367188 9.335938 M 46.53125 20.796875 C 46.132812 19.226562 46.265625 17.695312 46.929688 16.125 C 47.703125 14.289062 48.953125 12.984375 50.765625 12.132812 C 52.582031 11.28125 54.398438 11.148438 56.273438 11.738281 C 57.878906 12.246094 59.148438 13.136719 60.09375 14.480469 Z M 46.53125 20.796875 "/>
<path style=" stroke:none;fill-rule:nonzero;fill:rgb(100%,100%,100%);fill-opacity:1;" d="M 82.449219 24.523438 L 82.296875 24.523438 C 82.015625 24.523438 81.730469 24.617188 81.503906 24.808594 C 80.085938 25.960938 78.515625 26.507812 76.71875 26.507812 C 74.601562 26.507812 72.859375 25.789062 71.347656 24.277344 C 69.832031 22.78125 69.113281 21.023438 69.113281 18.925781 C 69.113281 16.824219 69.851562 15.066406 71.367188 13.550781 C 72.859375 12.058594 74.621094 11.339844 76.738281 11.339844 C 78.515625 11.339844 80.066406 11.886719 81.484375 13.003906 L 81.503906 13.023438 C 81.730469 13.191406 81.996094 13.289062 82.28125 13.289062 L 82.429688 13.289062 C 82.789062 13.25 83.113281 13.078125 83.339844 12.796875 L 83.359375 12.777344 C 83.527344 12.550781 83.621094 12.265625 83.621094 11.984375 L 83.621094 11.867188 C 83.585938 11.492188 83.414062 11.167969 83.113281 10.941406 C 81.257812 9.449219 79.101562 8.691406 76.738281 8.691406 C 73.917969 8.691406 71.5 9.710938 69.511719 11.699219 C 67.507812 13.683594 66.484375 16.125 66.484375 18.941406 C 66.484375 21.742188 67.507812 24.183594 69.511719 26.167969 C 71.5 28.15625 73.917969 29.15625 76.738281 29.15625 C 79.140625 29.15625 81.296875 28.382812 83.167969 26.851562 C 83.472656 26.621094 83.640625 26.300781 83.660156 25.921875 L 83.660156 25.808594 C 83.660156 25.507812 83.566406 25.242188 83.359375 24.996094 C 83.148438 24.730469 82.828125 24.5625 82.449219 24.523438 "/>
<path style=" stroke:none;fill-rule:nonzero;fill:rgb(100%,100%,100%);fill-opacity:1;" d="M 101.648438 11.054688 C 100.023438 9.410156 98.015625 8.578125 95.726562 8.578125 C 94.234375 8.578125 92.835938 8.957031 91.546875 9.695312 C 90.960938 10.035156 90.433594 10.429688 89.960938 10.886719 L 89.976562 5.363281 C 89.976562 5.003906 89.84375 4.679688 89.582031 4.453125 C 89.335938 4.207031 89.011719 4.058594 88.636719 4.058594 C 88.277344 4.058594 87.953125 4.191406 87.707031 4.453125 C 87.460938 4.699219 87.3125 5.023438 87.3125 5.363281 L 87.3125 27.945312 C 87.3125 28.304688 87.445312 28.628906 87.707031 28.855469 C 87.953125 29.101562 88.277344 29.25 88.636719 29.25 C 89.011719 29.25 89.335938 29.121094 89.582031 28.855469 C 89.828125 28.609375 89.976562 28.289062 89.976562 27.945312 L 89.976562 16.976562 C 89.976562 15.367188 90.527344 14.042969 91.660156 12.910156 C 92.796875 11.773438 94.121094 11.226562 95.726562 11.226562 C 97.316406 11.226562 98.660156 11.773438 99.796875 12.910156 C 100.929688 14.042969 101.476562 15.386719 101.476562 16.976562 L 101.476562 27.945312 C 101.476562 28.304688 101.609375 28.609375 101.855469 28.875 C 102.121094 29.121094 102.441406 29.25 102.785156 29.25 C 103.125 29.25 103.445312 29.121094 103.710938 28.875 C 103.976562 28.628906 104.125 28.304688 104.125 27.945312 L 104.125 16.976562 C 104.125 14.6875 103.292969 12.683594 101.648438 11.054688 "/>
<path style=" stroke:none;fill-rule:nonzero;fill:rgb(100%,100%,100%);fill-opacity:1;" d="M 102.785156 34.300781 C 102.253906 34.300781 101.78125 34.113281 101.382812 33.714844 C 100.988281 33.320312 100.796875 32.863281 100.796875 32.316406 C 100.796875 31.765625 101.003906 31.292969 101.382812 30.898438 C 101.78125 30.5 102.253906 30.3125 102.785156 30.3125 C 103.3125 30.3125 103.785156 30.5 104.183594 30.898438 C 104.582031 31.292969 104.769531 31.765625 104.769531 32.316406 C 104.769531 32.84375 104.582031 33.320312 104.203125 33.695312 C 103.804688 34.113281 103.332031 34.300781 102.785156 34.300781 Z M 102.785156 31.066406 C 102.441406 31.066406 102.160156 31.179688 101.914062 31.445312 C 101.667969 31.691406 101.535156 31.976562 101.535156 32.335938 C 101.535156 32.675781 101.648438 32.960938 101.914062 33.203125 C 102.160156 33.449219 102.441406 33.582031 102.785156 33.582031 C 103.144531 33.582031 103.425781 33.46875 103.671875 33.222656 C 103.917969 32.976562 104.03125 32.695312 104.03125 32.355469 C 104.03125 31.996094 103.917969 31.710938 103.652344 31.464844 C 103.40625 31.179688 103.125 31.066406 102.785156 31.066406 Z M 102.785156 31.066406 "/>
<path style=" stroke:none;fill-rule:nonzero;fill:rgb(100%,100%,100%);fill-opacity:1;" d="M 12.066406 7.671875 C 11.539062 7.671875 11.066406 7.480469 10.667969 7.082031 C 10.269531 6.6875 10.082031 6.234375 10.082031 5.683594 C 10.082031 5.136719 10.289062 4.664062 10.667969 4.265625 C 11.066406 3.867188 11.539062 3.679688 12.066406 3.679688 C 12.597656 3.679688 13.070312 3.867188 13.46875 4.265625 C 13.863281 4.664062 14.054688 5.136719 14.054688 5.683594 C 14.054688 6.214844 13.863281 6.6875 13.484375 7.066406 C 13.089844 7.480469 12.617188 7.671875 12.066406 7.671875 Z M 12.066406 4.433594 C 11.726562 4.433594 11.445312 4.550781 11.199219 4.8125 C 10.953125 5.058594 10.820312 5.34375 10.820312 5.703125 C 10.820312 6.042969 10.933594 6.328125 11.199219 6.574219 C 11.445312 6.820312 11.726562 6.953125 12.066406 6.953125 C 12.425781 6.953125 12.710938 6.835938 12.957031 6.59375 C 13.203125 6.347656 13.316406 6.0625 13.316406 5.722656 C 13.316406 5.363281 13.203125 5.078125 12.9375 4.832031 C 12.691406 4.550781 12.40625 4.433594 12.066406 4.433594 Z M 12.066406 4.433594 "/>
</g>
</svg>
